<svg width="299" height="340" viewBox="0 0 299 340" fill="none" xmlns="http://www.w3.org/2000/svg">
<g clip-path="url(#clip0_7902_2)">
<path d="M218.884 267.942C175.22 307.761 108.448 305.637 69.7446 263.198C31.0414 220.758 35.0629 154.073 78.727 114.254C122.391 74.4338 189.163 76.5579 227.866 118.998C266.569 161.438 262.548 228.122 218.884 267.942Z" fill="#F472B7"/>
<path d="M104.344 171.984C106.96 174.853 108.005 171.478 110.957 168.787C113.909 166.095 117.654 165.11 115.033 162.236C112.412 159.362 107.903 159.223 104.951 161.915C101.995 164.602 101.723 169.11 104.344 171.984Z" fill="white"/>
<path d="M83.9194 190.61C86.5356 193.479 87.5809 190.105 90.5325 187.413C93.4841 184.721 97.2293 183.736 94.6084 180.862C91.9874 177.988 87.4782 177.85 84.5266 180.541C81.5703 183.228 81.2984 187.736 83.9194 190.61Z" fill="white"/>
<path d="M101.157 199.316C106.268 204.92 115.087 205.201 120.853 199.942C126.619 194.684 127.15 185.876 122.039 180.272C116.928 174.667 117.719 184.925 111.953 190.183C106.187 195.442 96.0457 193.711 101.157 199.316Z" fill="white"/>
</g>
<g clip-path="url(#clip1_7902_2)">
<path d="M64.7073 126.932C99.7774 126.932 128.207 98.5023 128.207 63.4323C128.207 28.3622 99.7774 -0.0677452 64.7073 -0.0677452C29.6372 -0.0677452 1.20733 28.3622 1.20733 63.4323C1.20733 98.5023 29.6372 126.932 64.7073 126.932Z" fill="#FAD34F"/>
<path d="M81.8143 83.1596C81.8143 87.7062 78.127 83.1596 73.5762 83.1596C69.0296 83.1596 65.3381 87.7062 65.3381 83.1596C65.3381 78.613 69.0253 74.9215 73.5762 74.9215C78.127 74.9215 81.8143 78.6087 81.8143 83.1596Z" fill="white"/>
<path d="M107.752 83.1596C107.752 87.7062 104.065 83.1596 99.5138 83.1596C94.9672 83.1596 91.2758 87.7062 91.2758 83.1596C91.2758 78.613 94.963 74.9215 99.5138 74.9215C104.065 74.9215 107.752 78.6087 107.752 83.1596Z" fill="white"/>
<path d="M99.4969 100.614C99.4969 108.979 92.7151 115.756 84.3543 115.756C75.9935 115.756 69.2117 108.974 69.2117 100.614C69.2117 92.2528 75.9935 101.198 84.3543 101.198C92.7151 101.198 99.4969 92.2528 99.4969 100.614Z" fill="white"/>
</g>
<defs>
<clipPath id="clip0_7902_2">
<rect width="214" height="208" fill="white" transform="matrix(-0.738886 0.673831 0.673831 0.738886 158.121 42)"/>
</clipPath>
<clipPath id="clip1_7902_2">
<rect width="127" height="127" fill="white" transform="translate(1.00002)"/>
</clipPath>
</defs>
</svg>
